<?xml version="1.0" encoding="UTF-8"?>
<svg xmlns="http://www.w3.org/2000/svg" xmlns:xlink="http://www.w3.org/1999/xlink" viewBox="0 0 256 256" width="256px" height="256px">
<g id="surface309103298">
<path style=" stroke:none;fill-rule:nonzero;fill:rgb(100%,100%,100%);fill-opacity:1;" d="M 52 48 C 47.199219 48 43.207031 48.804688 38.40625 50.40625 C 20.007812 57.605469 11.207031 79.195312 18.40625 97.59375 L 54.40625 185.59375 C 60.007812 199.195312 72.804688 208 87.203125 208 L 88 208 C 102.398438 208 115.195312 200.003906 120.796875 187.203125 L 128 168 L 135.203125 187.203125 C 140.804688 200.003906 153.601562 208 168 208 L 168.796875 208 C 183.195312 208 195.992188 199.195312 201.59375 185.59375 L 237.59375 97.59375 C 244.792969 79.195312 235.992188 58.40625 217.59375 50.40625 C 212.792969 48.804688 208.800781 48 204 48 C 189.601562 48 176.007812 56.804688 170.40625 70.40625 L 165.59375 84 L 160 68.796875 C 154.398438 55.996094 141.601562 48 128 48 C 123.199219 48 117.597656 48.804688 112.796875 51.203125 C 104.796875 55.203125 99.203125 60.796875 95.203125 68.796875 L 94.40625 69.59375 L 88.796875 84.796875 L 84 71.203125 C 80 56.804688 66.398438 48 52 48 Z M 52 64 C 60 64 67.207031 68.800781 70.40625 76 L 74.40625 88.796875 L 88.796875 132.796875 L 104.796875 89.59375 L 109.59375 76.796875 L 109.59375 75.203125 C 111.195312 72.003906 114.398438 67.992188 120 65.59375 C 122.398438 64.792969 124.800781 64 128 64 C 136 64 142.40625 68.804688 146.40625 75.203125 L 152 89.59375 L 168 132.796875 L 182.40625 88.796875 L 186.40625 76 C 188.804688 68.800781 196 64 204 64 C 206.398438 64 208.804688 64.792969 211.203125 65.59375 C 216.003906 67.992188 220.007812 71.199219 222.40625 76 C 224.804688 80.800781 224.804688 86.402344 222.40625 91.203125 L 186.40625 179.203125 C 183.207031 187.203125 175.996094 192 168.796875 192 L 168 192 C 160 192 153.59375 187.195312 149.59375 180.796875 L 142.40625 162.40625 L 128 123.203125 L 112.796875 162.40625 L 105.59375 180.796875 C 102.394531 187.195312 96 192 88 192 C 80 192 72.792969 187.203125 69.59375 179.203125 L 33.59375 91.203125 C 31.195312 86.402344 31.992188 80.800781 33.59375 76 C 35.992188 71.199219 39.195312 67.195312 44.796875 65.59375 C 47.195312 64.792969 49.601562 64 52 64 Z M 52 64 "/>
</g>
</svg>
