<?xml version="1.0" encoding="UTF-8"?>
<svg xmlns="http://www.w3.org/2000/svg" xmlns:xlink="http://www.w3.org/1999/xlink" viewBox="0 0 256 256" width="256px" height="256px">
<g id="surface308399856">
<path style=" stroke:none;fill-rule:nonzero;fill:rgb(100%,100%,100%);fill-opacity:1;" d="M 152 24 C 107.90625 24 72 59.90625 72 104 C 72 123.15625 78.71875 140.71875 90 154.5 L 26.25 218.25 L 37.75 229.75 L 101.5 166 C 115.28125 177.28125 132.84375 184 152 184 C 196.09375 184 232 148.09375 232 104 C 232 59.90625 196.09375 24 152 24 Z M 152 40 C 187.4375 40 216 68.5625 216 104 C 216 139.4375 187.4375 168 152 168 C 116.5625 168 88 139.4375 88 104 C 88 68.5625 116.5625 40 152 40 Z M 152 40 "/>
</g>
</svg>
